<svg width="210" height="48" viewBox="0 0 210 48" fill="none" xmlns="http://www.w3.org/2000/svg">
<g clip-path="url(#clip0_1959_261)">
<path d="M122.884 48C122.446 47.899 122.016 47.7905 121.578 47.7044C117.296 46.87 114.038 44.5201 112.104 40.6623C108.858 34.1777 108.738 27.5173 112.067 21.044C115.946 13.5042 124.604 12.5201 130.102 15.2404C131.749 16.0866 133.195 17.2757 134.344 18.7278V0H143.997V47.3414H134.553V42.9111C134.366 42.956 134.287 42.9523 134.265 42.9822C132.208 45.8934 129.362 47.4275 125.853 47.8129C125.713 47.8543 125.581 47.9174 125.461 48H122.884ZM134.695 31.2067C134.482 29.6464 134.403 28.3817 134.127 27.1656C133.322 23.6258 131.004 21.6015 127.51 21.2834C126 21.1131 124.476 21.4434 123.172 22.2235C121.868 23.0035 120.856 24.1903 120.292 25.6015C118.924 29.001 118.936 32.8001 120.325 36.1908C121.526 39.2404 123.972 40.6324 127.499 40.5313C130.529 40.449 132.806 38.8176 133.775 35.7755C134.272 34.2189 134.433 32.5538 134.695 31.2067Z" fill="#D95729"/>
<path d="M166.356 47.9986C165.253 47.804 164.149 47.6244 163.05 47.4149C156.373 46.1314 151.702 41.2147 150.707 34.4907C150.187 30.9733 150.333 27.5084 151.564 24.152C153.897 17.7161 159.343 13.9631 166.334 13.9069C174.367 13.8396 180.038 18.7713 181.059 26.7638C181.268 28.3915 181.32 30.0379 181.451 31.7778H160.974C159.792 31.7778 159.792 31.7778 159.871 32.9378C160.207 37.8695 163.188 40.6235 168.144 40.6834C171.54 40.7396 174.868 39.7279 177.659 37.7909C177.76 37.7236 177.865 37.6562 177.969 37.5964C178.057 37.5621 178.149 37.537 178.242 37.5215C179.031 39.5234 179.843 41.529 180.587 43.5571C180.658 43.7554 180.367 44.2119 180.124 44.384C177.655 46.1502 174.842 47.0557 171.895 47.5795C171.147 47.7067 170.399 47.8452 169.677 47.9836L166.356 47.9986ZM172.954 26.9733C172.684 23.2315 170.534 20.4813 166.319 20.6497C162.87 20.7881 160.334 23.4635 160.102 26.9733H172.954Z" fill="#D95729"/>
<path d="M50.672 47.9976C49.55 47.803 48.3905 47.6234 47.2573 47.4101C40.2631 45.9919 35.6627 40.9629 34.8399 33.8423C34.3125 29.3034 34.8212 24.9405 37.3084 21.0041C40.1359 16.5139 44.3025 14.209 49.55 13.9732C51.3845 13.8596 53.2258 14.0172 55.0144 14.441C60.9688 15.9901 64.0394 20.237 65.154 26.0406C65.5019 27.8591 65.528 29.7412 65.6964 31.7581H44.1342C43.4572 36.3979 46.9132 40.4129 51.6146 40.6524C55.257 40.8822 58.871 39.8821 61.8776 37.8123C62.0272 37.7113 62.1806 37.6178 62.4424 37.4382C62.9024 38.5981 63.34 39.6832 63.7739 40.8058C64.0133 41.4045 64.2452 42.0032 64.4808 42.6019C65.0381 44.02 65.0418 44.0312 63.7066 44.8469C60.9578 46.4859 57.876 47.4859 54.689 47.773C54.3977 47.8242 54.1102 47.8955 53.8288 47.9863L50.672 47.9976ZM57.1351 26.9835C57.2099 23.5373 54.7301 20.8582 51.5248 20.6599C46.5915 20.3568 44.5082 23.9714 44.2838 26.9835H57.1351Z" fill="#D95729"/>
<path d="M103.506 47.3549H93.826V46.2622C93.826 40.0583 93.826 33.8544 93.826 27.6505C93.8234 27.0379 93.7759 26.4263 93.6839 25.8207C93.149 22.1687 90.6917 21.0462 87.4452 21.5139C83.6864 22.0602 81.4609 24.8815 81.4609 28.9152C81.4422 34.6289 81.4609 40.3389 81.4609 46.0527V47.3212H71.8113C71.5121 36.5073 72.1554 25.6486 71.3438 14.6925H74.7585C76.3556 14.6925 77.9526 14.7225 79.546 14.6925C80.1855 14.6925 80.3987 14.9208 80.4586 15.5157C80.5932 16.8778 80.784 18.2323 80.9785 19.8375C81.3039 19.4222 81.4722 19.2239 81.6255 19.0143C83.9369 15.8226 87.0787 14.0864 90.9947 13.9928C92.8324 13.9148 94.6714 14.1179 96.4479 14.5953C100.528 15.8039 102.387 19.0106 103.105 22.9657C103.359 24.4488 103.485 25.9512 103.479 27.4559C103.521 33.6897 103.479 39.9273 103.479 46.165L103.506 47.3549Z" fill="#D95729"/>
<path d="M1.75788 28.834L0.0673134 21.3316H1.12204C4.80238 21.2755 8.48272 21.2268 12.1668 21.152C12.7474 21.1284 13.324 21.0443 13.8873 20.9013C17.1487 20.1529 18.5476 18.282 18.469 14.7909C18.4092 11.9434 16.6625 10.0089 13.5769 9.48878C12.3075 9.28364 11.0251 9.16984 9.73942 9.14827C7.28213 9.09588 4.82483 9.12208 2.37127 9.14827C1.84016 9.14827 1.55217 9.04724 1.43622 8.44107C0.998619 6.19598 0.493694 3.95089 -0.0112305 1.60851C0.269019 1.5533 0.552669 1.51705 0.837791 1.5C5.34845 1.53742 9.85911 1.5 14.3698 1.65341C16.7718 1.71178 19.1315 2.29813 21.2816 3.37091C24.9507 5.21936 27.0527 8.20907 27.6399 12.2689C28.014 14.9518 27.9317 17.5935 26.9143 20.1268C25.5604 23.5243 23.0507 25.7395 19.7145 27.0828L18.8505 27.4345C18.9552 27.5617 19.0001 27.6665 19.0674 27.6852C21.5173 28.4411 23.1068 30.1211 24.0307 32.4074C25.9793 37.2381 27.8344 42.1062 29.727 46.9593C29.7646 47.1042 29.7909 47.2518 29.8055 47.4008H24.9844C23.3874 47.4008 21.7903 47.3672 20.197 47.4008C19.535 47.4233 19.2395 47.1988 19.0076 46.5814C17.3096 42.0912 15.5666 37.601 13.8461 33.1109C12.5932 29.848 11.1457 28.8452 7.60378 28.8227C5.67385 28.8152 3.74017 28.834 1.75788 28.834Z" fill="#D95729"/>
<path d="M196.793 20.2031C197.092 19.6755 197.276 19.3761 197.44 19.0805C199.785 14.6465 205.156 13.2433 209.147 14.2761C209.798 14.4444 210.011 14.7251 210 15.3986C209.955 18.0179 209.981 20.6147 209.981 23.2863C208.893 23.0057 207.887 22.5941 206.854 22.538C205.43 22.3887 203.992 22.4429 202.583 22.6989C199.217 23.4472 197.279 26.1413 197.261 29.8083C197.238 35.2714 197.261 40.7382 197.261 46.2012V47.3537H187.63C187.334 36.5024 188.004 25.6774 187.144 14.7999H196.12C196.333 16.4837 196.546 18.2199 196.793 20.2031Z" fill="#D95729"/>
</g>
<defs>
<clipPath id="clip0_1959_261">
<rect width="210" height="48" fill="white"/>
</clipPath>
</defs>
</svg>
