<svg width="499" height="306" viewBox="0 0 499 306" fill="none" xmlns="http://www.w3.org/2000/svg">
<g clip-path="url(#clip0_2018_2800)">
<rect width="499" height="499" rx="16" fill="white"/>
<rect x="213" y="-14" width="73" height="27" rx="8" fill="black"/>
<path d="M147.72 134.368H147.672C147.533 134.891 147.192 135.328 146.648 135.68C146.115 136.021 145.421 136.192 144.568 136.192C143.885 136.192 143.256 136.069 142.68 135.824C142.115 135.568 141.629 135.2 141.224 134.72C140.819 134.229 140.499 133.627 140.264 132.912C140.04 132.187 139.928 131.355 139.928 130.416C139.928 129.488 140.04 128.667 140.264 127.952C140.488 127.227 140.808 126.624 141.224 126.144C141.64 125.653 142.141 125.28 142.728 125.024C143.315 124.768 143.965 124.64 144.68 124.64C145.683 124.64 146.52 124.864 147.192 125.312C147.864 125.76 148.381 126.352 148.744 127.088L147.64 127.76C147.384 127.163 147 126.693 146.488 126.352C145.987 126.011 145.384 125.84 144.68 125.84C144.189 125.84 143.741 125.931 143.336 126.112C142.931 126.283 142.579 126.528 142.28 126.848C141.992 127.168 141.768 127.552 141.608 128C141.448 128.448 141.368 128.949 141.368 129.504V131.312C141.368 131.867 141.448 132.373 141.608 132.832C141.768 133.28 141.992 133.664 142.28 133.984C142.579 134.304 142.941 134.555 143.368 134.736C143.795 134.907 144.275 134.992 144.808 134.992C145.192 134.992 145.555 134.944 145.896 134.848C146.248 134.741 146.552 134.587 146.808 134.384C147.075 134.181 147.283 133.931 147.432 133.632C147.581 133.323 147.656 132.96 147.656 132.544V131.44H145.192V130.256H148.968V136H147.72V134.368ZM152.845 136C152.397 136 152.056 135.877 151.821 135.632C151.597 135.376 151.485 135.056 151.485 134.672V124.16H152.765V134.88H153.981V136H152.845ZM158.964 136.192C158.41 136.192 157.903 136.091 157.444 135.888C156.986 135.685 156.591 135.397 156.26 135.024C155.94 134.64 155.69 134.187 155.508 133.664C155.327 133.131 155.236 132.533 155.236 131.872C155.236 131.221 155.327 130.629 155.508 130.096C155.69 129.563 155.94 129.109 156.26 128.736C156.591 128.352 156.986 128.059 157.444 127.856C157.903 127.653 158.41 127.552 158.964 127.552C159.519 127.552 160.02 127.653 160.468 127.856C160.927 128.059 161.322 128.352 161.652 128.736C161.983 129.109 162.239 129.563 162.42 130.096C162.602 130.629 162.692 131.221 162.692 131.872C162.692 132.533 162.602 133.131 162.42 133.664C162.239 134.187 161.983 134.64 161.652 135.024C161.322 135.397 160.927 135.685 160.468 135.888C160.02 136.091 159.519 136.192 158.964 136.192ZM158.964 135.056C159.658 135.056 160.223 134.843 160.66 134.416C161.098 133.989 161.316 133.339 161.316 132.464V131.28C161.316 130.405 161.098 129.755 160.66 129.328C160.223 128.901 159.658 128.688 158.964 128.688C158.271 128.688 157.706 128.901 157.268 129.328C156.831 129.755 156.612 130.405 156.612 131.28V132.464C156.612 133.339 156.831 133.989 157.268 134.416C157.706 134.843 158.271 135.056 158.964 135.056ZM164.798 124.16H166.078V129.088H166.142C166.355 128.565 166.664 128.181 167.07 127.936C167.486 127.68 167.982 127.552 168.558 127.552C169.07 127.552 169.534 127.653 169.95 127.856C170.366 128.059 170.718 128.347 171.006 128.72C171.304 129.093 171.528 129.547 171.678 130.08C171.838 130.613 171.918 131.211 171.918 131.872C171.918 132.533 171.838 133.131 171.678 133.664C171.528 134.197 171.304 134.651 171.006 135.024C170.718 135.397 170.366 135.685 169.95 135.888C169.534 136.091 169.07 136.192 168.558 136.192C167.438 136.192 166.632 135.68 166.142 134.656H166.078V136H164.798V124.16ZM168.206 135.04C168.931 135.04 169.502 134.816 169.918 134.368C170.334 133.909 170.542 133.312 170.542 132.576V131.168C170.542 130.432 170.334 129.84 169.918 129.392C169.502 128.933 168.931 128.704 168.206 128.704C167.918 128.704 167.64 128.747 167.374 128.832C167.118 128.907 166.894 129.013 166.702 129.152C166.51 129.291 166.355 129.461 166.238 129.664C166.131 129.856 166.078 130.064 166.078 130.288V133.36C166.078 133.627 166.131 133.867 166.238 134.08C166.355 134.283 166.51 134.459 166.702 134.608C166.894 134.747 167.118 134.853 167.374 134.928C167.64 135.003 167.918 135.04 168.206 135.04ZM180.079 136C179.599 136 179.252 135.872 179.039 135.616C178.836 135.36 178.708 135.04 178.655 134.656H178.575C178.393 135.168 178.095 135.552 177.679 135.808C177.263 136.064 176.767 136.192 176.191 136.192C175.316 136.192 174.633 135.968 174.143 135.52C173.663 135.072 173.423 134.464 173.423 133.696C173.423 132.917 173.705 132.32 174.271 131.904C174.847 131.488 175.737 131.28 176.943 131.28H178.575V130.464C178.575 129.877 178.415 129.429 178.095 129.12C177.775 128.811 177.284 128.656 176.623 128.656C176.121 128.656 175.7 128.768 175.359 128.992C175.028 129.216 174.751 129.515 174.527 129.888L173.759 129.168C173.983 128.72 174.34 128.341 174.831 128.032C175.321 127.712 175.94 127.552 176.687 127.552C177.689 127.552 178.468 127.797 179.023 128.288C179.577 128.779 179.855 129.461 179.855 130.336V134.88H180.799V136H180.079ZM176.399 135.104C176.719 135.104 177.012 135.067 177.279 134.992C177.545 134.917 177.775 134.811 177.967 134.672C178.159 134.533 178.308 134.373 178.415 134.192C178.521 134.011 178.575 133.813 178.575 133.6V132.24H176.879C176.143 132.24 175.604 132.347 175.263 132.56C174.932 132.773 174.767 133.083 174.767 133.488V133.824C174.767 134.229 174.911 134.544 175.199 134.768C175.497 134.992 175.897 135.104 176.399 135.104ZM183.986 136C183.538 136 183.196 135.877 182.962 135.632C182.738 135.376 182.626 135.056 182.626 134.672V124.16H183.906V134.88H185.122V136H183.986ZM190.766 136V127.744H192.046V129.088H192.11C192.313 128.619 192.596 128.245 192.958 127.968C193.332 127.691 193.828 127.552 194.446 127.552C195.3 127.552 195.972 127.829 196.462 128.384C196.964 128.928 197.214 129.701 197.214 130.704V136H195.934V130.928C195.934 129.445 195.31 128.704 194.062 128.704C193.806 128.704 193.556 128.736 193.31 128.8C193.076 128.864 192.862 128.96 192.67 129.088C192.478 129.216 192.324 129.381 192.206 129.584C192.1 129.776 192.046 130.005 192.046 130.272V136H190.766ZM202.964 136.192C202.399 136.192 201.887 136.091 201.428 135.888C200.98 135.685 200.591 135.397 200.26 135.024C199.94 134.64 199.689 134.187 199.508 133.664C199.337 133.131 199.252 132.533 199.252 131.872C199.252 131.221 199.337 130.629 199.508 130.096C199.689 129.563 199.94 129.109 200.26 128.736C200.591 128.352 200.98 128.059 201.428 127.856C201.887 127.653 202.399 127.552 202.964 127.552C203.519 127.552 204.015 127.653 204.452 127.856C204.889 128.059 205.263 128.341 205.572 128.704C205.881 129.056 206.116 129.477 206.276 129.968C206.447 130.459 206.532 130.997 206.532 131.584V132.192H200.596V132.576C200.596 132.928 200.649 133.259 200.756 133.568C200.873 133.867 201.033 134.128 201.236 134.352C201.449 134.576 201.705 134.752 202.004 134.88C202.313 135.008 202.66 135.072 203.044 135.072C203.567 135.072 204.02 134.949 204.404 134.704C204.799 134.459 205.103 134.107 205.316 133.648L206.228 134.304C205.961 134.869 205.545 135.328 204.98 135.68C204.415 136.021 203.743 136.192 202.964 136.192ZM202.964 128.624C202.612 128.624 202.292 128.688 202.004 128.816C201.716 128.933 201.465 129.104 201.252 129.328C201.049 129.552 200.889 129.819 200.772 130.128C200.655 130.427 200.596 130.757 200.596 131.12V131.232H205.156V131.056C205.156 130.32 204.953 129.733 204.548 129.296C204.153 128.848 203.625 128.624 202.964 128.624ZM210.465 136C210.017 136 209.676 135.877 209.441 135.632C209.217 135.376 209.105 135.045 209.105 134.64V128.864H207.745V127.744H208.513C208.791 127.744 208.977 127.691 209.073 127.584C209.18 127.467 209.233 127.269 209.233 126.992V125.456H210.385V127.744H212.193V128.864H210.385V134.88H212.065V136H210.465ZM213.387 127.744H214.635L215.515 131.312L216.395 134.928H216.427L217.435 131.312L218.475 127.744H219.611L220.683 131.312L221.707 134.928H221.739L222.587 131.312L223.483 127.744H224.683L222.491 136H220.907L219.755 132.032L219.035 129.52H219.003L218.299 132.032L217.147 136H215.595L213.387 127.744ZM229.574 136.192C229.019 136.192 228.512 136.091 228.054 135.888C227.595 135.685 227.2 135.397 226.87 135.024C226.55 134.64 226.299 134.187 226.118 133.664C225.936 133.131 225.846 132.533 225.846 131.872C225.846 131.221 225.936 130.629 226.118 130.096C226.299 129.563 226.55 129.109 226.87 128.736C227.2 128.352 227.595 128.059 228.054 127.856C228.512 127.653 229.019 127.552 229.574 127.552C230.128 127.552 230.63 127.653 231.078 127.856C231.536 128.059 231.931 128.352 232.262 128.736C232.592 129.109 232.848 129.563 233.03 130.096C233.211 130.629 233.302 131.221 233.302 131.872C233.302 132.533 233.211 133.131 233.03 133.664C232.848 134.187 232.592 134.64 232.262 135.024C231.931 135.397 231.536 135.685 231.078 135.888C230.63 136.091 230.128 136.192 229.574 136.192ZM229.574 135.056C230.267 135.056 230.832 134.843 231.27 134.416C231.707 133.989 231.926 133.339 231.926 132.464V131.28C231.926 130.405 231.707 129.755 231.27 129.328C230.832 128.901 230.267 128.688 229.574 128.688C228.88 128.688 228.315 128.901 227.878 129.328C227.44 129.755 227.222 130.405 227.222 131.28V132.464C227.222 133.339 227.44 133.989 227.878 134.416C228.315 134.843 228.88 135.056 229.574 135.056ZM235.407 136V127.744H236.687V129.264H236.767C236.916 128.869 237.183 128.517 237.567 128.208C237.951 127.899 238.479 127.744 239.151 127.744H239.647V129.024H238.895C238.202 129.024 237.658 129.157 237.263 129.424C236.879 129.68 236.687 130.005 236.687 130.4V136H235.407ZM241.282 124.16H242.562V131.664H242.626L243.89 130.256L246.226 127.744H247.778L244.722 131.008L248.082 136H246.53L243.794 131.792L242.562 133.056V136H241.282V124.16ZM256.765 136.192C255.858 136.192 255.085 136.021 254.445 135.68C253.805 135.328 253.261 134.848 252.813 134.24L253.805 133.408C254.199 133.931 254.637 134.331 255.117 134.608C255.597 134.875 256.162 135.008 256.813 135.008C257.613 135.008 258.221 134.816 258.637 134.432C259.063 134.048 259.277 133.536 259.277 132.896C259.277 132.363 259.117 131.952 258.797 131.664C258.477 131.376 257.949 131.147 257.213 130.976L256.301 130.768C255.277 130.533 254.493 130.181 253.949 129.712C253.415 129.232 253.149 128.56 253.149 127.696C253.149 127.205 253.239 126.768 253.421 126.384C253.602 126 253.853 125.68 254.173 125.424C254.503 125.168 254.893 124.976 255.341 124.848C255.799 124.709 256.301 124.64 256.845 124.64C257.687 124.64 258.407 124.795 259.005 125.104C259.613 125.413 260.125 125.867 260.541 126.464L259.533 127.2C259.223 126.773 258.85 126.437 258.413 126.192C257.975 125.947 257.431 125.824 256.781 125.824C256.066 125.824 255.501 125.979 255.085 126.288C254.679 126.587 254.477 127.04 254.477 127.648C254.477 128.181 254.647 128.587 254.989 128.864C255.341 129.131 255.869 129.344 256.573 129.504L257.485 129.712C258.583 129.957 259.378 130.331 259.869 130.832C260.359 131.333 260.605 132 260.605 132.832C260.605 133.344 260.514 133.808 260.333 134.224C260.162 134.64 259.911 134.992 259.581 135.28C259.25 135.568 258.845 135.792 258.365 135.952C257.895 136.112 257.362 136.192 256.765 136.192ZM269.918 136L268.798 132.704H264.286L263.166 136H261.806L265.71 124.832H267.422L271.326 136H269.918ZM266.574 126.08H266.494L264.606 131.52H268.462L266.574 126.08ZM280.402 136L279.282 132.704H274.77L273.65 136H272.29L276.194 124.832H277.906L281.81 136H280.402ZM277.058 126.08H276.978L275.09 131.52H278.946L277.058 126.08ZM286.796 136.192C285.889 136.192 285.116 136.021 284.476 135.68C283.836 135.328 283.292 134.848 282.844 134.24L283.836 133.408C284.231 133.931 284.668 134.331 285.148 134.608C285.628 134.875 286.193 135.008 286.844 135.008C287.644 135.008 288.252 134.816 288.668 134.432C289.095 134.048 289.308 133.536 289.308 132.896C289.308 132.363 289.148 131.952 288.828 131.664C288.508 131.376 287.98 131.147 287.244 130.976L286.332 130.768C285.308 130.533 284.524 130.181 283.98 129.712C283.447 129.232 283.18 128.56 283.18 127.696C283.18 127.205 283.271 126.768 283.452 126.384C283.633 126 283.884 125.68 284.204 125.424C284.535 125.168 284.924 124.976 285.372 124.848C285.831 124.709 286.332 124.64 286.876 124.64C287.719 124.64 288.439 124.795 289.036 125.104C289.644 125.413 290.156 125.867 290.572 126.464L289.564 127.2C289.255 126.773 288.881 126.437 288.444 126.192C288.007 125.947 287.463 125.824 286.812 125.824C286.097 125.824 285.532 125.979 285.116 126.288C284.711 126.587 284.508 127.04 284.508 127.648C284.508 128.181 284.679 128.587 285.02 128.864C285.372 129.131 285.9 129.344 286.604 129.504L287.516 129.712C288.615 129.957 289.409 130.331 289.9 130.832C290.391 131.333 290.636 132 290.636 132.832C290.636 133.344 290.545 133.808 290.364 134.224C290.193 134.64 289.943 134.992 289.612 135.28C289.281 135.568 288.876 135.792 288.396 135.952C287.927 136.112 287.393 136.192 286.796 136.192ZM299.682 136.192C299.106 136.192 298.589 136.091 298.13 135.888C297.671 135.685 297.282 135.397 296.962 135.024C296.653 134.651 296.413 134.197 296.242 133.664C296.082 133.131 296.002 132.533 296.002 131.872C296.002 131.211 296.082 130.613 296.242 130.08C296.413 129.547 296.653 129.093 296.962 128.72C297.282 128.347 297.671 128.059 298.13 127.856C298.589 127.653 299.106 127.552 299.682 127.552C300.503 127.552 301.159 127.733 301.65 128.096C302.151 128.448 302.525 128.912 302.77 129.488L301.698 130.032C301.549 129.605 301.303 129.275 300.962 129.04C300.621 128.805 300.194 128.688 299.682 128.688C299.298 128.688 298.962 128.752 298.674 128.88C298.386 128.997 298.146 129.168 297.954 129.392C297.762 129.605 297.618 129.867 297.522 130.176C297.426 130.475 297.378 130.805 297.378 131.168V132.576C297.378 133.301 297.57 133.899 297.954 134.368C298.349 134.827 298.925 135.056 299.682 135.056C300.717 135.056 301.463 134.576 301.922 133.616L302.85 134.24C302.583 134.837 302.183 135.312 301.65 135.664C301.127 136.016 300.471 136.192 299.682 136.192ZM307.683 136.192C307.128 136.192 306.622 136.091 306.163 135.888C305.704 135.685 305.31 135.397 304.979 135.024C304.659 134.64 304.408 134.187 304.227 133.664C304.046 133.131 303.955 132.533 303.955 131.872C303.955 131.221 304.046 130.629 304.227 130.096C304.408 129.563 304.659 129.109 304.979 128.736C305.31 128.352 305.704 128.059 306.163 127.856C306.622 127.653 307.128 127.552 307.683 127.552C308.238 127.552 308.739 127.653 309.187 127.856C309.646 128.059 310.04 128.352 310.371 128.736C310.702 129.109 310.958 129.563 311.139 130.096C311.32 130.629 311.411 131.221 311.411 131.872C311.411 132.533 311.32 133.131 311.139 133.664C310.958 134.187 310.702 134.64 310.371 135.024C310.04 135.397 309.646 135.685 309.187 135.888C308.739 136.091 308.238 136.192 307.683 136.192ZM307.683 135.056C308.376 135.056 308.942 134.843 309.379 134.416C309.816 133.989 310.035 133.339 310.035 132.464V131.28C310.035 130.405 309.816 129.755 309.379 129.328C308.942 128.901 308.376 128.688 307.683 128.688C306.99 128.688 306.424 128.901 305.987 129.328C305.55 129.755 305.331 130.405 305.331 131.28V132.464C305.331 133.339 305.55 133.989 305.987 134.416C306.424 134.843 306.99 135.056 307.683 135.056ZM313.516 136V127.744H314.796V129.088H314.86C314.956 128.875 315.063 128.677 315.18 128.496C315.308 128.304 315.458 128.139 315.628 128C315.81 127.861 316.018 127.755 316.252 127.68C316.487 127.595 316.764 127.552 317.084 127.552C317.628 127.552 318.13 127.685 318.588 127.952C319.047 128.208 319.388 128.635 319.612 129.232H319.644C319.794 128.784 320.071 128.395 320.476 128.064C320.892 127.723 321.452 127.552 322.156 127.552C322.999 127.552 323.655 127.829 324.124 128.384C324.604 128.928 324.844 129.701 324.844 130.704V136H323.564V130.928C323.564 130.192 323.42 129.637 323.132 129.264C322.844 128.891 322.386 128.704 321.756 128.704C321.5 128.704 321.255 128.736 321.02 128.8C320.796 128.864 320.594 128.96 320.412 129.088C320.231 129.216 320.087 129.381 319.98 129.584C319.874 129.776 319.82 130.005 319.82 130.272V136H318.54V130.928C318.54 130.192 318.396 129.637 318.108 129.264C317.82 128.891 317.372 128.704 316.764 128.704C316.508 128.704 316.263 128.736 316.028 128.8C315.794 128.864 315.586 128.96 315.404 129.088C315.223 129.216 315.074 129.381 314.956 129.584C314.85 129.776 314.796 130.005 314.796 130.272V136H313.516ZM327.485 127.744H328.765V129.088H328.829C329.042 128.565 329.352 128.181 329.757 127.936C330.173 127.68 330.669 127.552 331.245 127.552C331.757 127.552 332.221 127.653 332.637 127.856C333.053 128.059 333.405 128.347 333.693 128.72C333.992 129.093 334.216 129.547 334.365 130.08C334.525 130.613 334.605 131.211 334.605 131.872C334.605 132.533 334.525 133.131 334.365 133.664C334.216 134.197 333.992 134.651 333.693 135.024C333.405 135.397 333.053 135.685 332.637 135.888C332.221 136.091 331.757 136.192 331.245 136.192C330.125 136.192 329.32 135.68 328.829 134.656H328.765V139.2H327.485V127.744ZM330.893 135.04C331.618 135.04 332.189 134.816 332.605 134.368C333.021 133.909 333.229 133.312 333.229 132.576V131.168C333.229 130.432 333.021 129.84 332.605 129.392C332.189 128.933 331.618 128.704 330.893 128.704C330.605 128.704 330.328 128.747 330.061 128.832C329.805 128.907 329.581 129.013 329.389 129.152C329.197 129.291 329.042 129.461 328.925 129.664C328.818 129.856 328.765 130.064 328.765 130.288V133.36C328.765 133.627 328.818 133.867 328.925 134.08C329.042 134.283 329.197 134.459 329.389 134.608C329.581 134.747 329.805 134.853 330.061 134.928C330.328 135.003 330.605 135.04 330.893 135.04ZM342.766 136C342.286 136 341.94 135.872 341.726 135.616C341.524 135.36 341.396 135.04 341.342 134.656H341.262C341.081 135.168 340.782 135.552 340.366 135.808C339.95 136.064 339.454 136.192 338.878 136.192C338.004 136.192 337.321 135.968 336.83 135.52C336.35 135.072 336.11 134.464 336.11 133.696C336.11 132.917 336.393 132.32 336.958 131.904C337.534 131.488 338.425 131.28 339.63 131.28H341.262V130.464C341.262 129.877 341.102 129.429 340.782 129.12C340.462 128.811 339.972 128.656 339.31 128.656C338.809 128.656 338.388 128.768 338.046 128.992C337.716 129.216 337.438 129.515 337.214 129.888L336.446 129.168C336.67 128.72 337.028 128.341 337.518 128.032C338.009 127.712 338.628 127.552 339.374 127.552C340.377 127.552 341.156 127.797 341.71 128.288C342.265 128.779 342.542 129.461 342.542 130.336V134.88H343.486V136H342.766ZM339.086 135.104C339.406 135.104 339.7 135.067 339.966 134.992C340.233 134.917 340.462 134.811 340.654 134.672C340.846 134.533 340.996 134.373 341.102 134.192C341.209 134.011 341.262 133.813 341.262 133.6V132.24H339.566C338.83 132.24 338.292 132.347 337.95 132.56C337.62 132.773 337.454 133.083 337.454 133.488V133.824C337.454 134.229 337.598 134.544 337.886 134.768C338.185 134.992 338.585 135.104 339.086 135.104ZM345.313 136V127.744H346.593V129.088H346.657C346.86 128.619 347.142 128.245 347.505 127.968C347.878 127.691 348.374 127.552 348.993 127.552C349.846 127.552 350.518 127.829 351.009 128.384C351.51 128.928 351.761 129.701 351.761 130.704V136H350.481V130.928C350.481 129.445 349.857 128.704 348.609 128.704C348.353 128.704 348.102 128.736 347.857 128.8C347.622 128.864 347.409 128.96 347.217 129.088C347.025 129.216 346.87 129.381 346.753 129.584C346.646 129.776 346.593 130.005 346.593 130.272V136H345.313ZM359.37 127.744H360.634L356.938 137.92C356.842 138.165 356.746 138.368 356.65 138.528C356.554 138.699 356.437 138.832 356.298 138.928C356.159 139.024 355.983 139.093 355.77 139.136C355.567 139.179 355.317 139.2 355.018 139.2H354.362V138.08H355.658L356.282 136.32L353.194 127.744H354.474L356.458 133.36L356.842 134.704H356.922L357.37 133.36L359.37 127.744Z" fill="#3D3D3D"/>
</g>
<rect x="1.5" y="1.5" width="496" height="496" rx="14.5" stroke="black" stroke-width="3"/>
<defs>
<clipPath id="clip0_2018_2800">
<rect width="499" height="499" rx="16" fill="white"/>
</clipPath>
</defs>
</svg>
