<svg width="340" height="331" viewBox="0 0 340 331" fill="none" xmlns="http://www.w3.org/2000/svg">
<rect width="340" height="722" rx="16" fill="#CCCCCC"/>
<rect opacity="0.4" x="130" y="24" width="80" height="8" rx="4" fill="#141414"/>
<rect width="292" height="597" transform="translate(24 56)" fill="white"/>
<path d="M67.72 110.368H67.672C67.5333 110.891 67.192 111.328 66.648 111.68C66.1147 112.021 65.4213 112.192 64.568 112.192C63.8853 112.192 63.256 112.069 62.68 111.824C62.1147 111.568 61.6293 111.2 61.224 110.72C60.8187 110.229 60.4987 109.627 60.264 108.912C60.04 108.187 59.928 107.355 59.928 106.416C59.928 105.488 60.04 104.667 60.264 103.952C60.488 103.227 60.808 102.624 61.224 102.144C61.64 101.653 62.1413 101.28 62.728 101.024C63.3147 100.768 63.9653 100.64 64.68 100.64C65.6827 100.64 66.52 100.864 67.192 101.312C67.864 101.76 68.3813 102.352 68.744 103.088L67.64 103.76C67.384 103.163 67 102.693 66.488 102.352C65.9867 102.011 65.384 101.84 64.68 101.84C64.1893 101.84 63.7413 101.931 63.336 102.112C62.9307 102.283 62.5787 102.528 62.28 102.848C61.992 103.168 61.768 103.552 61.608 104C61.448 104.448 61.368 104.949 61.368 105.504V107.312C61.368 107.867 61.448 108.373 61.608 108.832C61.768 109.28 61.992 109.664 62.28 109.984C62.5787 110.304 62.9413 110.555 63.368 110.736C63.7947 110.907 64.2747 110.992 64.808 110.992C65.192 110.992 65.5547 110.944 65.896 110.848C66.248 110.741 66.552 110.587 66.808 110.384C67.0747 110.181 67.2827 109.931 67.432 109.632C67.5813 109.323 67.656 108.96 67.656 108.544V107.44H65.192V106.256H68.968V112H67.72V110.368ZM72.845 112C72.397 112 72.0557 111.877 71.821 111.632C71.597 111.376 71.485 111.056 71.485 110.672V100.16H72.765V110.88H73.981V112H72.845ZM78.9644 112.192C78.4097 112.192 77.903 112.091 77.4444 111.888C76.9857 111.685 76.591 111.397 76.2604 111.024C75.9404 110.64 75.6897 110.187 75.5084 109.664C75.327 109.131 75.2364 108.533 75.2364 107.872C75.2364 107.221 75.327 106.629 75.5084 106.096C75.6897 105.563 75.9404 105.109 76.2604 104.736C76.591 104.352 76.9857 104.059 77.4444 103.856C77.903 103.653 78.4097 103.552 78.9644 103.552C79.519 103.552 80.0204 103.653 80.4684 103.856C80.927 104.059 81.3217 104.352 81.6524 104.736C81.983 105.109 82.239 105.563 82.4204 106.096C82.6017 106.629 82.6924 107.221 82.6924 107.872C82.6924 108.533 82.6017 109.131 82.4204 109.664C82.239 110.187 81.983 110.64 81.6524 111.024C81.3217 111.397 80.927 111.685 80.4684 111.888C80.0204 112.091 79.519 112.192 78.9644 112.192ZM78.9644 111.056C79.6577 111.056 80.223 110.843 80.6604 110.416C81.0977 109.989 81.3164 109.339 81.3164 108.464V107.28C81.3164 106.405 81.0977 105.755 80.6604 105.328C80.223 104.901 79.6577 104.688 78.9644 104.688C78.271 104.688 77.7057 104.901 77.2684 105.328C76.831 105.755 76.6124 106.405 76.6124 107.28V108.464C76.6124 109.339 76.831 109.989 77.2684 110.416C77.7057 110.843 78.271 111.056 78.9644 111.056ZM84.7975 100.16H86.0775V105.088H86.1415C86.3548 104.565 86.6642 104.181 87.0695 103.936C87.4855 103.68 87.9815 103.552 88.5575 103.552C89.0695 103.552 89.5335 103.653 89.9495 103.856C90.3655 104.059 90.7175 104.347 91.0055 104.72C91.3042 105.093 91.5282 105.547 91.6775 106.08C91.8375 106.613 91.9175 107.211 91.9175 107.872C91.9175 108.533 91.8375 109.131 91.6775 109.664C91.5282 110.197 91.3042 110.651 91.0055 111.024C90.7175 111.397 90.3655 111.685 89.9495 111.888C89.5335 112.091 89.0695 112.192 88.5575 112.192C87.4375 112.192 86.6322 111.68 86.1415 110.656H86.0775V112H84.7975V100.16ZM88.2055 111.04C88.9308 111.04 89.5015 110.816 89.9175 110.368C90.3335 109.909 90.5415 109.312 90.5415 108.576V107.168C90.5415 106.432 90.3335 105.84 89.9175 105.392C89.5015 104.933 88.9308 104.704 88.2055 104.704C87.9175 104.704 87.6402 104.747 87.3735 104.832C87.1175 104.907 86.8935 105.013 86.7015 105.152C86.5095 105.291 86.3548 105.461 86.2375 105.664C86.1308 105.856 86.0775 106.064 86.0775 106.288V109.36C86.0775 109.627 86.1308 109.867 86.2375 110.08C86.3548 110.283 86.5095 110.459 86.7015 110.608C86.8935 110.747 87.1175 110.853 87.3735 110.928C87.6402 111.003 87.9175 111.04 88.2055 111.04ZM100.079 112C99.5988 112 99.2521 111.872 99.0388 111.616C98.8361 111.36 98.7081 111.04 98.6548 110.656H98.5748C98.3934 111.168 98.0948 111.552 97.6788 111.808C97.2628 112.064 96.7668 112.192 96.1908 112.192C95.3161 112.192 94.6334 111.968 94.1428 111.52C93.6628 111.072 93.4228 110.464 93.4228 109.696C93.4228 108.917 93.7054 108.32 94.2708 107.904C94.8468 107.488 95.7374 107.28 96.9427 107.28H98.5748V106.464C98.5748 105.877 98.4148 105.429 98.0948 105.12C97.7748 104.811 97.2841 104.656 96.6228 104.656C96.1214 104.656 95.7001 104.768 95.3588 104.992C95.0281 105.216 94.7508 105.515 94.5268 105.888L93.7588 105.168C93.9828 104.72 94.3401 104.341 94.8307 104.032C95.3214 103.712 95.9401 103.552 96.6868 103.552C97.6894 103.552 98.4681 103.797 99.0228 104.288C99.5774 104.779 99.8548 105.461 99.8548 106.336V110.88H100.799V112H100.079ZM96.3988 111.104C96.7188 111.104 97.0121 111.067 97.2788 110.992C97.5454 110.917 97.7748 110.811 97.9668 110.672C98.1588 110.533 98.3081 110.373 98.4148 110.192C98.5214 110.011 98.5748 109.813 98.5748 109.6V108.24H96.8788C96.1428 108.24 95.6041 108.347 95.2628 108.56C94.9321 108.773 94.7668 109.083 94.7668 109.488V109.824C94.7668 110.229 94.9108 110.544 95.1988 110.768C95.4974 110.992 95.8974 111.104 96.3988 111.104ZM103.986 112C103.538 112 103.196 111.877 102.962 111.632C102.738 111.376 102.626 111.056 102.626 110.672V100.16H103.906V110.88H105.122V112H103.986ZM110.766 112V103.744H112.046V105.088H112.11C112.313 104.619 112.596 104.245 112.958 103.968C113.332 103.691 113.828 103.552 114.446 103.552C115.3 103.552 115.972 103.829 116.462 104.384C116.964 104.928 117.214 105.701 117.214 106.704V112H115.934V106.928C115.934 105.445 115.31 104.704 114.062 104.704C113.806 104.704 113.556 104.736 113.31 104.8C113.076 104.864 112.862 104.96 112.67 105.088C112.478 105.216 112.324 105.381 112.206 105.584C112.1 105.776 112.046 106.005 112.046 106.272V112H110.766ZM122.964 112.192C122.399 112.192 121.887 112.091 121.428 111.888C120.98 111.685 120.591 111.397 120.26 111.024C119.94 110.64 119.689 110.187 119.508 109.664C119.337 109.131 119.252 108.533 119.252 107.872C119.252 107.221 119.337 106.629 119.508 106.096C119.689 105.563 119.94 105.109 120.26 104.736C120.591 104.352 120.98 104.059 121.428 103.856C121.887 103.653 122.399 103.552 122.964 103.552C123.519 103.552 124.015 103.653 124.452 103.856C124.889 104.059 125.263 104.341 125.572 104.704C125.881 105.056 126.116 105.477 126.276 105.968C126.447 106.459 126.532 106.997 126.532 107.584V108.192H120.596V108.576C120.596 108.928 120.649 109.259 120.756 109.568C120.873 109.867 121.033 110.128 121.236 110.352C121.449 110.576 121.705 110.752 122.004 110.88C122.313 111.008 122.66 111.072 123.044 111.072C123.567 111.072 124.02 110.949 124.404 110.704C124.799 110.459 125.103 110.107 125.316 109.648L126.228 110.304C125.961 110.869 125.545 111.328 124.98 111.68C124.415 112.021 123.743 112.192 122.964 112.192ZM122.964 104.624C122.612 104.624 122.292 104.688 122.004 104.816C121.716 104.933 121.465 105.104 121.252 105.328C121.049 105.552 120.889 105.819 120.772 106.128C120.655 106.427 120.596 106.757 120.596 107.12V107.232H125.156V107.056C125.156 106.32 124.953 105.733 124.548 105.296C124.153 104.848 123.625 104.624 122.964 104.624ZM130.465 112C130.017 112 129.676 111.877 129.441 111.632C129.217 111.376 129.105 111.045 129.105 110.64V104.864H127.745V103.744H128.513C128.791 103.744 128.977 103.691 129.073 103.584C129.18 103.467 129.233 103.269 129.233 102.992V101.456H130.385V103.744H132.193V104.864H130.385V110.88H132.065V112H130.465ZM133.387 103.744H134.635L135.515 107.312L136.395 110.928H136.427L137.435 107.312L138.475 103.744H139.611L140.683 107.312L141.707 110.928H141.739L142.587 107.312L143.483 103.744H144.683L142.491 112H140.907L139.755 108.032L139.035 105.52H139.003L138.299 108.032L137.147 112H135.595L133.387 103.744ZM149.574 112.192C149.019 112.192 148.512 112.091 148.054 111.888C147.595 111.685 147.2 111.397 146.87 111.024C146.55 110.64 146.299 110.187 146.118 109.664C145.936 109.131 145.846 108.533 145.846 107.872C145.846 107.221 145.936 106.629 146.118 106.096C146.299 105.563 146.55 105.109 146.87 104.736C147.2 104.352 147.595 104.059 148.054 103.856C148.512 103.653 149.019 103.552 149.574 103.552C150.128 103.552 150.63 103.653 151.078 103.856C151.536 104.059 151.931 104.352 152.262 104.736C152.592 105.109 152.848 105.563 153.03 106.096C153.211 106.629 153.302 107.221 153.302 107.872C153.302 108.533 153.211 109.131 153.03 109.664C152.848 110.187 152.592 110.64 152.262 111.024C151.931 111.397 151.536 111.685 151.078 111.888C150.63 112.091 150.128 112.192 149.574 112.192ZM149.574 111.056C150.267 111.056 150.832 110.843 151.27 110.416C151.707 109.989 151.926 109.339 151.926 108.464V107.28C151.926 106.405 151.707 105.755 151.27 105.328C150.832 104.901 150.267 104.688 149.574 104.688C148.88 104.688 148.315 104.901 147.878 105.328C147.44 105.755 147.222 106.405 147.222 107.28V108.464C147.222 109.339 147.44 109.989 147.878 110.416C148.315 110.843 148.88 111.056 149.574 111.056ZM155.407 112V103.744H156.687V105.264H156.767C156.916 104.869 157.183 104.517 157.567 104.208C157.951 103.899 158.479 103.744 159.151 103.744H159.647V105.024H158.895C158.202 105.024 157.658 105.157 157.263 105.424C156.879 105.68 156.687 106.005 156.687 106.4V112H155.407ZM161.282 100.16H162.562V107.664H162.626L163.89 106.256L166.226 103.744H167.778L164.722 107.008L168.082 112H166.53L163.794 107.792L162.562 109.056V112H161.282V100.16ZM176.765 112.192C175.858 112.192 175.085 112.021 174.445 111.68C173.805 111.328 173.261 110.848 172.813 110.24L173.805 109.408C174.199 109.931 174.637 110.331 175.117 110.608C175.597 110.875 176.162 111.008 176.813 111.008C177.613 111.008 178.221 110.816 178.637 110.432C179.063 110.048 179.277 109.536 179.277 108.896C179.277 108.363 179.117 107.952 178.797 107.664C178.477 107.376 177.949 107.147 177.213 106.976L176.301 106.768C175.277 106.533 174.493 106.181 173.949 105.712C173.415 105.232 173.149 104.56 173.149 103.696C173.149 103.205 173.239 102.768 173.421 102.384C173.602 102 173.853 101.68 174.173 101.424C174.503 101.168 174.893 100.976 175.341 100.848C175.799 100.709 176.301 100.64 176.845 100.64C177.687 100.64 178.407 100.795 179.005 101.104C179.613 101.413 180.125 101.867 180.541 102.464L179.533 103.2C179.223 102.773 178.85 102.437 178.413 102.192C177.975 101.947 177.431 101.824 176.781 101.824C176.066 101.824 175.501 101.979 175.085 102.288C174.679 102.587 174.477 103.04 174.477 103.648C174.477 104.181 174.647 104.587 174.989 104.864C175.341 105.131 175.869 105.344 176.573 105.504L177.485 105.712C178.583 105.957 179.378 106.331 179.869 106.832C180.359 107.333 180.605 108 180.605 108.832C180.605 109.344 180.514 109.808 180.333 110.224C180.162 110.64 179.911 110.992 179.581 111.28C179.25 111.568 178.845 111.792 178.365 111.952C177.895 112.112 177.362 112.192 176.765 112.192ZM189.918 112L188.798 108.704H184.286L183.166 112H181.806L185.71 100.832H187.422L191.326 112H189.918ZM186.574 102.08H186.494L184.606 107.52H188.462L186.574 102.08ZM200.402 112L199.282 108.704H194.77L193.65 112H192.29L196.194 100.832H197.906L201.81 112H200.402ZM197.058 102.08H196.978L195.09 107.52H198.946L197.058 102.08ZM206.796 112.192C205.889 112.192 205.116 112.021 204.476 111.68C203.836 111.328 203.292 110.848 202.844 110.24L203.836 109.408C204.231 109.931 204.668 110.331 205.148 110.608C205.628 110.875 206.193 111.008 206.844 111.008C207.644 111.008 208.252 110.816 208.668 110.432C209.095 110.048 209.308 109.536 209.308 108.896C209.308 108.363 209.148 107.952 208.828 107.664C208.508 107.376 207.98 107.147 207.244 106.976L206.332 106.768C205.308 106.533 204.524 106.181 203.98 105.712C203.447 105.232 203.18 104.56 203.18 103.696C203.18 103.205 203.271 102.768 203.452 102.384C203.633 102 203.884 101.68 204.204 101.424C204.535 101.168 204.924 100.976 205.372 100.848C205.831 100.709 206.332 100.64 206.876 100.64C207.719 100.64 208.439 100.795 209.036 101.104C209.644 101.413 210.156 101.867 210.572 102.464L209.564 103.2C209.255 102.773 208.881 102.437 208.444 102.192C208.007 101.947 207.463 101.824 206.812 101.824C206.097 101.824 205.532 101.979 205.116 102.288C204.711 102.587 204.508 103.04 204.508 103.648C204.508 104.181 204.679 104.587 205.02 104.864C205.372 105.131 205.9 105.344 206.604 105.504L207.516 105.712C208.615 105.957 209.409 106.331 209.9 106.832C210.391 107.333 210.636 108 210.636 108.832C210.636 109.344 210.545 109.808 210.364 110.224C210.193 110.64 209.943 110.992 209.612 111.28C209.281 111.568 208.876 111.792 208.396 111.952C207.927 112.112 207.393 112.192 206.796 112.192ZM219.682 112.192C219.106 112.192 218.589 112.091 218.13 111.888C217.671 111.685 217.282 111.397 216.962 111.024C216.653 110.651 216.413 110.197 216.242 109.664C216.082 109.131 216.002 108.533 216.002 107.872C216.002 107.211 216.082 106.613 216.242 106.08C216.413 105.547 216.653 105.093 216.962 104.72C217.282 104.347 217.671 104.059 218.13 103.856C218.589 103.653 219.106 103.552 219.682 103.552C220.503 103.552 221.159 103.733 221.65 104.096C222.151 104.448 222.525 104.912 222.77 105.488L221.698 106.032C221.549 105.605 221.303 105.275 220.962 105.04C220.621 104.805 220.194 104.688 219.682 104.688C219.298 104.688 218.962 104.752 218.674 104.88C218.386 104.997 218.146 105.168 217.954 105.392C217.762 105.605 217.618 105.867 217.522 106.176C217.426 106.475 217.378 106.805 217.378 107.168V108.576C217.378 109.301 217.57 109.899 217.954 110.368C218.349 110.827 218.925 111.056 219.682 111.056C220.717 111.056 221.463 110.576 221.922 109.616L222.85 110.24C222.583 110.837 222.183 111.312 221.65 111.664C221.127 112.016 220.471 112.192 219.682 112.192ZM227.683 112.192C227.128 112.192 226.622 112.091 226.163 111.888C225.704 111.685 225.31 111.397 224.979 111.024C224.659 110.64 224.408 110.187 224.227 109.664C224.046 109.131 223.955 108.533 223.955 107.872C223.955 107.221 224.046 106.629 224.227 106.096C224.408 105.563 224.659 105.109 224.979 104.736C225.31 104.352 225.704 104.059 226.163 103.856C226.622 103.653 227.128 103.552 227.683 103.552C228.238 103.552 228.739 103.653 229.187 103.856C229.646 104.059 230.04 104.352 230.371 104.736C230.702 105.109 230.958 105.563 231.139 106.096C231.32 106.629 231.411 107.221 231.411 107.872C231.411 108.533 231.32 109.131 231.139 109.664C230.958 110.187 230.702 110.64 230.371 111.024C230.04 111.397 229.646 111.685 229.187 111.888C228.739 112.091 228.238 112.192 227.683 112.192ZM227.683 111.056C228.376 111.056 228.942 110.843 229.379 110.416C229.816 109.989 230.035 109.339 230.035 108.464V107.28C230.035 106.405 229.816 105.755 229.379 105.328C228.942 104.901 228.376 104.688 227.683 104.688C226.99 104.688 226.424 104.901 225.987 105.328C225.55 105.755 225.331 106.405 225.331 107.28V108.464C225.331 109.339 225.55 109.989 225.987 110.416C226.424 110.843 226.99 111.056 227.683 111.056ZM233.516 112V103.744H234.796V105.088H234.86C234.956 104.875 235.063 104.677 235.18 104.496C235.308 104.304 235.458 104.139 235.628 104C235.81 103.861 236.018 103.755 236.252 103.68C236.487 103.595 236.764 103.552 237.084 103.552C237.628 103.552 238.13 103.685 238.588 103.952C239.047 104.208 239.388 104.635 239.612 105.232H239.644C239.794 104.784 240.071 104.395 240.476 104.064C240.892 103.723 241.452 103.552 242.156 103.552C242.999 103.552 243.655 103.829 244.124 104.384C244.604 104.928 244.844 105.701 244.844 106.704V112H243.564V106.928C243.564 106.192 243.42 105.637 243.132 105.264C242.844 104.891 242.386 104.704 241.756 104.704C241.5 104.704 241.255 104.736 241.02 104.8C240.796 104.864 240.594 104.96 240.412 105.088C240.231 105.216 240.087 105.381 239.98 105.584C239.874 105.776 239.82 106.005 239.82 106.272V112H238.54V106.928C238.54 106.192 238.396 105.637 238.108 105.264C237.82 104.891 237.372 104.704 236.764 104.704C236.508 104.704 236.263 104.736 236.028 104.8C235.794 104.864 235.586 104.96 235.404 105.088C235.223 105.216 235.074 105.381 234.956 105.584C234.85 105.776 234.796 106.005 234.796 106.272V112H233.516ZM247.485 103.744H248.765V105.088H248.829C249.042 104.565 249.352 104.181 249.757 103.936C250.173 103.68 250.669 103.552 251.245 103.552C251.757 103.552 252.221 103.653 252.637 103.856C253.053 104.059 253.405 104.347 253.693 104.72C253.992 105.093 254.216 105.547 254.365 106.08C254.525 106.613 254.605 107.211 254.605 107.872C254.605 108.533 254.525 109.131 254.365 109.664C254.216 110.197 253.992 110.651 253.693 111.024C253.405 111.397 253.053 111.685 252.637 111.888C252.221 112.091 251.757 112.192 251.245 112.192C250.125 112.192 249.32 111.68 248.829 110.656H248.765V115.2H247.485V103.744ZM250.893 111.04C251.618 111.04 252.189 110.816 252.605 110.368C253.021 109.909 253.229 109.312 253.229 108.576V107.168C253.229 106.432 253.021 105.84 252.605 105.392C252.189 104.933 251.618 104.704 250.893 104.704C250.605 104.704 250.328 104.747 250.061 104.832C249.805 104.907 249.581 105.013 249.389 105.152C249.197 105.291 249.042 105.461 248.925 105.664C248.818 105.856 248.765 106.064 248.765 106.288V109.36C248.765 109.627 248.818 109.867 248.925 110.08C249.042 110.283 249.197 110.459 249.389 110.608C249.581 110.747 249.805 110.853 250.061 110.928C250.328 111.003 250.605 111.04 250.893 111.04ZM262.766 112C262.286 112 261.94 111.872 261.726 111.616C261.524 111.36 261.396 111.04 261.342 110.656H261.262C261.081 111.168 260.782 111.552 260.366 111.808C259.95 112.064 259.454 112.192 258.878 112.192C258.004 112.192 257.321 111.968 256.83 111.52C256.35 111.072 256.11 110.464 256.11 109.696C256.11 108.917 256.393 108.32 256.958 107.904C257.534 107.488 258.425 107.28 259.63 107.28H261.262V106.464C261.262 105.877 261.102 105.429 260.782 105.12C260.462 104.811 259.972 104.656 259.31 104.656C258.809 104.656 258.388 104.768 258.046 104.992C257.716 105.216 257.438 105.515 257.214 105.888L256.446 105.168C256.67 104.72 257.028 104.341 257.518 104.032C258.009 103.712 258.628 103.552 259.374 103.552C260.377 103.552 261.156 103.797 261.71 104.288C262.265 104.779 262.542 105.461 262.542 106.336V110.88H263.486V112H262.766ZM259.086 111.104C259.406 111.104 259.7 111.067 259.966 110.992C260.233 110.917 260.462 110.811 260.654 110.672C260.846 110.533 260.996 110.373 261.102 110.192C261.209 110.011 261.262 109.813 261.262 109.6V108.24H259.566C258.83 108.24 258.292 108.347 257.95 108.56C257.62 108.773 257.454 109.083 257.454 109.488V109.824C257.454 110.229 257.598 110.544 257.886 110.768C258.185 110.992 258.585 111.104 259.086 111.104ZM265.313 112V103.744H266.593V105.088H266.657C266.86 104.619 267.142 104.245 267.505 103.968C267.878 103.691 268.374 103.552 268.993 103.552C269.846 103.552 270.518 103.829 271.009 104.384C271.51 104.928 271.761 105.701 271.761 106.704V112H270.481V106.928C270.481 105.445 269.857 104.704 268.609 104.704C268.353 104.704 268.102 104.736 267.857 104.8C267.622 104.864 267.409 104.96 267.217 105.088C267.025 105.216 266.87 105.381 266.753 105.584C266.646 105.776 266.593 106.005 266.593 106.272V112H265.313ZM279.37 103.744H280.634L276.938 113.92C276.842 114.165 276.746 114.368 276.65 114.528C276.554 114.699 276.437 114.832 276.298 114.928C276.159 115.024 275.983 115.093 275.77 115.136C275.567 115.179 275.317 115.2 275.018 115.2H274.362V114.08H275.658L276.282 112.32L273.194 103.744H274.474L276.458 109.36L276.842 110.704H276.922L277.37 109.36L279.37 103.744Z" fill="#292929"/>
</svg>
