<svg width="499" height="306" viewBox="0 0 499 306" fill="none" xmlns="http://www.w3.org/2000/svg">
<g clip-path="url(#clip0_2018_2800)">
<rect width="499" height="499" rx="16" fill="white"/>
<rect x="213" y="-14" width="73" height="27" rx="8" fill="black"/>
<path d="M189.72 134.368H189.672C189.533 134.891 189.192 135.328 188.648 135.68C188.115 136.021 187.421 136.192 186.568 136.192C185.885 136.192 185.256 136.069 184.68 135.824C184.115 135.568 183.629 135.2 183.224 134.72C182.819 134.229 182.499 133.627 182.264 132.912C182.04 132.187 181.928 131.355 181.928 130.416C181.928 129.488 182.04 128.667 182.264 127.952C182.488 127.227 182.808 126.624 183.224 126.144C183.64 125.653 184.141 125.28 184.728 125.024C185.315 124.768 185.965 124.64 186.68 124.64C187.683 124.64 188.52 124.864 189.192 125.312C189.864 125.76 190.381 126.352 190.744 127.088L189.64 127.76C189.384 127.163 189 126.693 188.488 126.352C187.987 126.011 187.384 125.84 186.68 125.84C186.189 125.84 185.741 125.931 185.336 126.112C184.931 126.283 184.579 126.528 184.28 126.848C183.992 127.168 183.768 127.552 183.608 128C183.448 128.448 183.368 128.949 183.368 129.504V131.312C183.368 131.867 183.448 132.373 183.608 132.832C183.768 133.28 183.992 133.664 184.28 133.984C184.579 134.304 184.941 134.555 185.368 134.736C185.795 134.907 186.275 134.992 186.808 134.992C187.192 134.992 187.555 134.944 187.896 134.848C188.248 134.741 188.552 134.587 188.808 134.384C189.075 134.181 189.283 133.931 189.432 133.632C189.581 133.323 189.656 132.96 189.656 132.544V131.44H187.192V130.256H190.968V136H189.72V134.368ZM194.125 125.808C193.848 125.808 193.645 125.744 193.517 125.616C193.4 125.477 193.341 125.301 193.341 125.088V124.88C193.341 124.667 193.4 124.496 193.517 124.368C193.645 124.229 193.848 124.16 194.125 124.16C194.402 124.16 194.6 124.229 194.717 124.368C194.845 124.496 194.909 124.667 194.909 124.88V125.088C194.909 125.301 194.845 125.477 194.717 125.616C194.6 125.744 194.402 125.808 194.125 125.808ZM193.485 127.744H194.765V136H193.485V127.744ZM197.485 124.16H198.765V129.088H198.829C199.042 128.565 199.352 128.181 199.757 127.936C200.173 127.68 200.669 127.552 201.245 127.552C201.757 127.552 202.221 127.653 202.637 127.856C203.053 128.059 203.405 128.347 203.693 128.72C203.992 129.093 204.216 129.547 204.365 130.08C204.525 130.613 204.605 131.211 204.605 131.872C204.605 132.533 204.525 133.131 204.365 133.664C204.216 134.197 203.992 134.651 203.693 135.024C203.405 135.397 203.053 135.685 202.637 135.888C202.221 136.091 201.757 136.192 201.245 136.192C200.125 136.192 199.32 135.68 198.829 134.656H198.765V136H197.485V124.16ZM200.893 135.04C201.618 135.04 202.189 134.816 202.605 134.368C203.021 133.909 203.229 133.312 203.229 132.576V131.168C203.229 130.432 203.021 129.84 202.605 129.392C202.189 128.933 201.618 128.704 200.893 128.704C200.605 128.704 200.328 128.747 200.061 128.832C199.805 128.907 199.581 129.013 199.389 129.152C199.197 129.291 199.042 129.461 198.925 129.664C198.818 129.856 198.765 130.064 198.765 130.288V133.36C198.765 133.627 198.818 133.867 198.925 134.08C199.042 134.283 199.197 134.459 199.389 134.608C199.581 134.747 199.805 134.853 200.061 134.928C200.328 135.003 200.605 135.04 200.893 135.04ZM206.766 124.16H208.046V129.088H208.11C208.324 128.565 208.633 128.181 209.038 127.936C209.454 127.68 209.95 127.552 210.526 127.552C211.038 127.552 211.502 127.653 211.918 127.856C212.334 128.059 212.686 128.347 212.974 128.72C213.273 129.093 213.497 129.547 213.646 130.08C213.806 130.613 213.886 131.211 213.886 131.872C213.886 132.533 213.806 133.131 213.646 133.664C213.497 134.197 213.273 134.651 212.974 135.024C212.686 135.397 212.334 135.685 211.918 135.888C211.502 136.091 211.038 136.192 210.526 136.192C209.406 136.192 208.601 135.68 208.11 134.656H208.046V136H206.766V124.16ZM210.174 135.04C210.9 135.04 211.47 134.816 211.886 134.368C212.302 133.909 212.51 133.312 212.51 132.576V131.168C212.51 130.432 212.302 129.84 211.886 129.392C211.47 128.933 210.9 128.704 210.174 128.704C209.886 128.704 209.609 128.747 209.342 128.832C209.086 128.907 208.862 129.013 208.67 129.152C208.478 129.291 208.324 129.461 208.206 129.664C208.1 129.856 208.046 130.064 208.046 130.288V133.36C208.046 133.627 208.1 133.867 208.206 134.08C208.324 134.283 208.478 134.459 208.67 134.608C208.862 134.747 209.086 134.853 209.342 134.928C209.609 135.003 209.886 135.04 210.174 135.04ZM219.168 136.192C218.613 136.192 218.106 136.091 217.648 135.888C217.189 135.685 216.794 135.397 216.464 135.024C216.144 134.64 215.893 134.187 215.712 133.664C215.53 133.131 215.44 132.533 215.44 131.872C215.44 131.221 215.53 130.629 215.712 130.096C215.893 129.563 216.144 129.109 216.464 128.736C216.794 128.352 217.189 128.059 217.648 127.856C218.106 127.653 218.613 127.552 219.168 127.552C219.722 127.552 220.224 127.653 220.672 127.856C221.13 128.059 221.525 128.352 221.856 128.736C222.186 129.109 222.442 129.563 222.624 130.096C222.805 130.629 222.896 131.221 222.896 131.872C222.896 132.533 222.805 133.131 222.624 133.664C222.442 134.187 222.186 134.64 221.856 135.024C221.525 135.397 221.13 135.685 220.672 135.888C220.224 136.091 219.722 136.192 219.168 136.192ZM219.168 135.056C219.861 135.056 220.426 134.843 220.864 134.416C221.301 133.989 221.52 133.339 221.52 132.464V131.28C221.52 130.405 221.301 129.755 220.864 129.328C220.426 128.901 219.861 128.688 219.168 128.688C218.474 128.688 217.909 128.901 217.472 129.328C217.034 129.755 216.816 130.405 216.816 131.28V132.464C216.816 133.339 217.034 133.989 217.472 134.416C217.909 134.843 218.474 135.056 219.168 135.056ZM225.001 136V127.744H226.281V129.088H226.345C226.547 128.619 226.83 128.245 227.193 127.968C227.566 127.691 228.062 127.552 228.681 127.552C229.534 127.552 230.206 127.829 230.697 128.384C231.198 128.928 231.449 129.701 231.449 130.704V136H230.169V130.928C230.169 129.445 229.545 128.704 228.297 128.704C228.041 128.704 227.79 128.736 227.545 128.8C227.31 128.864 227.097 128.96 226.905 129.088C226.713 129.216 226.558 129.381 226.441 129.584C226.334 129.776 226.281 130.005 226.281 130.272V136H225.001ZM246.708 126.592H246.628L245.684 128.464L243.012 133.328L240.34 128.464L239.396 126.592H239.316V136H238.004V124.832H239.796L242.996 130.848H243.076L246.292 124.832H248.02V136H246.708V126.592ZM255.948 134.656H255.884C255.799 134.848 255.692 135.04 255.564 135.232C255.447 135.413 255.297 135.579 255.116 135.728C254.935 135.867 254.716 135.979 254.46 136.064C254.204 136.149 253.905 136.192 253.564 136.192C252.711 136.192 252.033 135.92 251.532 135.376C251.031 134.821 250.78 134.043 250.78 133.04V127.744H252.06V132.816C252.06 134.299 252.689 135.04 253.948 135.04C254.204 135.04 254.449 135.008 254.684 134.944C254.929 134.88 255.143 134.784 255.324 134.656C255.516 134.528 255.665 134.368 255.772 134.176C255.889 133.973 255.948 133.733 255.948 133.456V127.744H257.228V136H255.948V134.656ZM261.314 136C260.866 136 260.524 135.877 260.29 135.632C260.066 135.376 259.954 135.056 259.954 134.672V124.16H261.234V134.88H262.45V136H261.314ZM266.059 136C265.611 136 265.27 135.877 265.035 135.632C264.811 135.376 264.699 135.045 264.699 134.64V128.864H263.339V127.744H264.107C264.384 127.744 264.571 127.691 264.667 127.584C264.774 127.467 264.827 127.269 264.827 126.992V125.456H265.979V127.744H267.787V128.864H265.979V134.88H267.659V136H266.059ZM270.484 125.808C270.207 125.808 270.004 125.744 269.876 125.616C269.759 125.477 269.7 125.301 269.7 125.088V124.88C269.7 124.667 269.759 124.496 269.876 124.368C270.004 124.229 270.207 124.16 270.484 124.16C270.762 124.16 270.959 124.229 271.076 124.368C271.204 124.496 271.268 124.667 271.268 124.88V125.088C271.268 125.301 271.204 125.477 271.076 125.616C270.959 125.744 270.762 125.808 270.484 125.808ZM269.844 127.744H271.124V136H269.844V127.744ZM273.844 136V127.744H275.124V129.088H275.188C275.284 128.875 275.391 128.677 275.508 128.496C275.636 128.304 275.786 128.139 275.956 128C276.138 127.861 276.346 127.755 276.58 127.68C276.815 127.595 277.092 127.552 277.412 127.552C277.956 127.552 278.458 127.685 278.916 127.952C279.375 128.208 279.716 128.635 279.94 129.232H279.972C280.122 128.784 280.399 128.395 280.804 128.064C281.22 127.723 281.78 127.552 282.484 127.552C283.327 127.552 283.983 127.829 284.452 128.384C284.932 128.928 285.172 129.701 285.172 130.704V136H283.892V130.928C283.892 130.192 283.748 129.637 283.46 129.264C283.172 128.891 282.714 128.704 282.084 128.704C281.828 128.704 281.583 128.736 281.348 128.8C281.124 128.864 280.922 128.96 280.74 129.088C280.559 129.216 280.415 129.381 280.308 129.584C280.202 129.776 280.148 130.005 280.148 130.272V136H278.868V130.928C278.868 130.192 278.724 129.637 278.436 129.264C278.148 128.891 277.7 128.704 277.092 128.704C276.836 128.704 276.591 128.736 276.356 128.8C276.122 128.864 275.914 128.96 275.732 129.088C275.551 129.216 275.402 129.381 275.284 129.584C275.178 129.776 275.124 130.005 275.124 130.272V136H273.844ZM290.917 136.192C290.352 136.192 289.84 136.091 289.381 135.888C288.933 135.685 288.544 135.397 288.213 135.024C287.893 134.64 287.642 134.187 287.461 133.664C287.29 133.131 287.205 132.533 287.205 131.872C287.205 131.221 287.29 130.629 287.461 130.096C287.642 129.563 287.893 129.109 288.213 128.736C288.544 128.352 288.933 128.059 289.381 127.856C289.84 127.653 290.352 127.552 290.917 127.552C291.472 127.552 291.968 127.653 292.405 127.856C292.842 128.059 293.216 128.341 293.525 128.704C293.834 129.056 294.069 129.477 294.229 129.968C294.4 130.459 294.485 130.997 294.485 131.584V132.192H288.549V132.576C288.549 132.928 288.602 133.259 288.709 133.568C288.826 133.867 288.986 134.128 289.189 134.352C289.402 134.576 289.658 134.752 289.957 134.88C290.266 135.008 290.613 135.072 290.997 135.072C291.52 135.072 291.973 134.949 292.357 134.704C292.752 134.459 293.056 134.107 293.269 133.648L294.181 134.304C293.914 134.869 293.498 135.328 292.933 135.68C292.368 136.021 291.696 136.192 290.917 136.192ZM290.917 128.624C290.565 128.624 290.245 128.688 289.957 128.816C289.669 128.933 289.418 129.104 289.205 129.328C289.002 129.552 288.842 129.819 288.725 130.128C288.608 130.427 288.549 130.757 288.549 131.12V131.232H293.109V131.056C293.109 130.32 292.906 129.733 292.501 129.296C292.106 128.848 291.578 128.624 290.917 128.624ZM301.874 134.656H301.81C301.309 135.68 300.504 136.192 299.394 136.192C298.882 136.192 298.418 136.091 298.002 135.888C297.586 135.685 297.229 135.397 296.93 135.024C296.642 134.651 296.418 134.197 296.258 133.664C296.109 133.131 296.034 132.533 296.034 131.872C296.034 131.211 296.109 130.613 296.258 130.08C296.418 129.547 296.642 129.093 296.93 128.72C297.229 128.347 297.586 128.059 298.002 127.856C298.418 127.653 298.882 127.552 299.394 127.552C299.97 127.552 300.461 127.68 300.866 127.936C301.282 128.181 301.597 128.565 301.81 129.088H301.874V124.16H303.154V136H301.874V134.656ZM299.746 135.04C300.034 135.04 300.306 135.003 300.562 134.928C300.829 134.853 301.058 134.747 301.25 134.608C301.442 134.459 301.592 134.283 301.698 134.08C301.816 133.867 301.874 133.627 301.874 133.36V130.288C301.874 130.064 301.816 129.856 301.698 129.664C301.592 129.461 301.442 129.291 301.25 129.152C301.058 129.013 300.829 128.907 300.562 128.832C300.306 128.747 300.034 128.704 299.746 128.704C299.021 128.704 298.45 128.933 298.034 129.392C297.618 129.84 297.41 130.432 297.41 131.168V132.576C297.41 133.312 297.618 133.909 298.034 134.368C298.45 134.816 299.021 135.04 299.746 135.04ZM306.516 125.808C306.238 125.808 306.036 125.744 305.908 125.616C305.79 125.477 305.732 125.301 305.732 125.088V124.88C305.732 124.667 305.79 124.496 305.908 124.368C306.036 124.229 306.238 124.16 306.516 124.16C306.793 124.16 306.99 124.229 307.108 124.368C307.236 124.496 307.3 124.667 307.3 124.88V125.088C307.3 125.301 307.236 125.477 307.108 125.616C306.99 125.744 306.793 125.808 306.516 125.808ZM305.876 127.744H307.156V136H305.876V127.744ZM315.876 136C315.396 136 315.049 135.872 314.836 135.616C314.633 135.36 314.505 135.04 314.452 134.656H314.372C314.19 135.168 313.892 135.552 313.476 135.808C313.06 136.064 312.564 136.192 311.988 136.192C311.113 136.192 310.43 135.968 309.94 135.52C309.46 135.072 309.22 134.464 309.22 133.696C309.22 132.917 309.502 132.32 310.068 131.904C310.644 131.488 311.534 131.28 312.74 131.28H314.372V130.464C314.372 129.877 314.212 129.429 313.892 129.12C313.572 128.811 313.081 128.656 312.42 128.656C311.918 128.656 311.497 128.768 311.156 128.992C310.825 129.216 310.548 129.515 310.324 129.888L309.556 129.168C309.78 128.72 310.137 128.341 310.628 128.032C311.118 127.712 311.737 127.552 312.484 127.552C313.486 127.552 314.265 127.797 314.82 128.288C315.374 128.779 315.652 129.461 315.652 130.336V134.88H316.596V136H315.876ZM312.196 135.104C312.516 135.104 312.809 135.067 313.076 134.992C313.342 134.917 313.572 134.811 313.764 134.672C313.956 134.533 314.105 134.373 314.212 134.192C314.318 134.011 314.372 133.813 314.372 133.6V132.24H312.676C311.94 132.24 311.401 132.347 311.06 132.56C310.729 132.773 310.564 133.083 310.564 133.488V133.824C310.564 134.229 310.708 134.544 310.996 134.768C311.294 134.992 311.694 135.104 312.196 135.104Z" fill="#3D3D3D"/>
</g>
<rect x="1.5" y="1.5" width="496" height="496" rx="14.5" stroke="black" stroke-width="3"/>
<defs>
<clipPath id="clip0_2018_2800">
<rect width="499" height="499" rx="16" fill="white"/>
</clipPath>
</defs>
</svg>
