<svg width="30" height="30" viewBox="0 0 30 30" fill="none" xmlns="http://www.w3.org/2000/svg">
<path d="M15.0002 17.6693L12.3335 15.0026L15.0002 12.3359L17.6668 15.0026L15.0002 17.6693ZM12.1668 9.83594L8.8335 6.5026L15.0002 0.335938L21.1668 6.5026L17.8335 9.83594L15.0002 7.0026L12.1668 9.83594ZM6.50016 21.1693L0.333496 15.0026L6.50016 8.83594L9.8335 12.1693L7.00016 15.0026L9.8335 17.8359L6.50016 21.1693ZM23.5002 21.1693L20.1668 17.8359L23.0002 15.0026L20.1668 12.1693L23.5002 8.83594L29.6668 15.0026L23.5002 21.1693ZM15.0002 29.6693L8.8335 23.5026L12.1668 20.1693L15.0002 23.0026L17.8335 20.1693L21.1668 23.5026L15.0002 29.6693Z" fill="white"/>
</svg>
