<svg width="32" height="32" viewBox="0 0 32 32" fill="none" xmlns="http://www.w3.org/2000/svg">
<mask id="mask0_1961_346" style="mask-type:alpha" maskUnits="userSpaceOnUse" x="0" y="0" width="32" height="32">
<rect width="32" height="32" fill="#D9D9D9"/>
</mask>
<g mask="url(#mask0_1961_346)">
<path d="M6.66675 14.6667V13.3333C6.66675 11.7333 7.02786 10.2722 7.75008 8.95C8.4723 7.62778 9.44453 6.54444 10.6667 5.7L8.16675 3.2L9.33341 2L12.1667 4.83333C12.7445 4.56667 13.3612 4.36111 14.0167 4.21667C14.6723 4.07222 15.3334 4 16.0001 4C16.6667 4 17.3279 4.07222 17.9834 4.21667C18.639 4.36111 19.2556 4.56667 19.8334 4.83333L22.6667 2L23.8334 3.2L21.3334 5.7C22.5556 6.54444 23.5279 7.62778 24.2501 8.95C24.9723 10.2722 25.3334 11.7333 25.3334 13.3333V14.6667H6.66675ZM20.0001 12C20.3779 12 20.6945 11.8722 20.9501 11.6167C21.2056 11.3611 21.3334 11.0444 21.3334 10.6667C21.3334 10.2889 21.2056 9.97222 20.9501 9.71667C20.6945 9.46111 20.3779 9.33333 20.0001 9.33333C19.6223 9.33333 19.3056 9.46111 19.0501 9.71667C18.7945 9.97222 18.6667 10.2889 18.6667 10.6667C18.6667 11.0444 18.7945 11.3611 19.0501 11.6167C19.3056 11.8722 19.6223 12 20.0001 12ZM12.0001 12C12.3779 12 12.6945 11.8722 12.9501 11.6167C13.2056 11.3611 13.3334 11.0444 13.3334 10.6667C13.3334 10.2889 13.2056 9.97222 12.9501 9.71667C12.6945 9.46111 12.3779 9.33333 12.0001 9.33333C11.6223 9.33333 11.3056 9.46111 11.0501 9.71667C10.7945 9.97222 10.6667 10.2889 10.6667 10.6667C10.6667 11.0444 10.7945 11.3611 11.0501 11.6167C11.3056 11.8722 11.6223 12 12.0001 12ZM16.0001 30.6667C13.4001 30.6667 11.1945 29.7611 9.38341 27.95C7.5723 26.1389 6.66675 23.9333 6.66675 21.3333V16H25.3334V21.3333C25.3334 23.9333 24.4279 26.1389 22.6167 27.95C20.8056 29.7611 18.6001 30.6667 16.0001 30.6667Z" fill="black"/>
</g>
</svg>
