<svg width="32" height="32" viewBox="0 0 32 32" fill="none" xmlns="http://www.w3.org/2000/svg">
<mask id="mask0_1961_352" style="mask-type:alpha" maskUnits="userSpaceOnUse" x="0" y="0" width="32" height="32">
<rect width="32" height="32" fill="#D9D9D9"/>
</mask>
<g mask="url(#mask0_1961_352)">
<path d="M16.0001 28.0059C13.4001 28.0059 11.1945 27.1004 9.38341 25.2892C7.5723 23.4781 6.66675 21.2726 6.66675 18.6726C6.66675 16.5837 7.28341 14.7115 8.51675 13.0559C9.75008 11.4004 11.3667 10.2837 13.3667 9.70591C12.9223 9.5948 12.489 9.43369 12.0667 9.22258C11.6445 9.01146 11.2667 8.73924 10.9334 8.40591C10.2001 7.67257 9.72786 6.80035 9.51675 5.78924C9.30564 4.77813 9.25564 3.75035 9.36675 2.70591C10.4112 2.5948 11.439 2.6448 12.4501 2.85591C13.4612 3.06702 14.3334 3.53924 15.0667 4.27258C15.5779 4.78369 15.9501 5.36146 16.1834 6.00591C16.4167 6.65035 16.5667 7.32813 16.6334 8.03924C16.9223 7.35035 17.2723 6.70035 17.6834 6.08924C18.0945 5.47813 18.5556 4.91702 19.0667 4.40591C19.3112 4.16146 19.6223 4.03924 20.0001 4.03924C20.3779 4.03924 20.689 4.16146 20.9334 4.40591C21.1779 4.65035 21.3001 4.96146 21.3001 5.33924C21.3001 5.71702 21.1779 6.02813 20.9334 6.27258C20.4445 6.76146 20.0112 7.30035 19.6334 7.88924C19.2556 8.47813 18.9779 9.10591 18.8001 9.77257C20.7556 10.3948 22.3334 11.5226 23.5334 13.1559C24.7334 14.7892 25.3334 16.6281 25.3334 18.6726C25.3334 21.2726 24.4279 23.4781 22.6167 25.2892C20.8056 27.1004 18.6001 28.0059 16.0001 28.0059ZM16.0001 25.3392C17.8445 25.3392 19.4167 24.6892 20.7167 23.3892C22.0167 22.0892 22.6667 20.517 22.6667 18.6726C22.6667 16.8281 22.0167 15.2559 20.7167 13.9559C19.4167 12.6559 17.8445 12.0059 16.0001 12.0059C14.1556 12.0059 12.5834 12.6559 11.2834 13.9559C9.98341 15.2559 9.33341 16.8281 9.33341 18.6726C9.33341 20.517 9.98341 22.0892 11.2834 23.3892C12.5834 24.6892 14.1556 25.3392 16.0001 25.3392Z" fill="black"/>
</g>
</svg>
