<svg width="32" height="32" viewBox="0 0 32 32" fill="none" xmlns="http://www.w3.org/2000/svg">
<g id="design_services">
<mask id="mask0_1961_349" style="mask-type:alpha" maskUnits="userSpaceOnUse" x="0" y="0" width="32" height="32">
<rect id="Bounding box" width="32" height="32" fill="#D9D9D9"/>
</mask>
<g mask="url(#mask0_1961_349)">
<path id="design_services_2" d="M11.7332 14.5974L14.5998 11.6974L12.7332 9.7974L11.2665 11.2641L9.39984 9.3974L10.8332 7.93073L9.33317 6.43073L6.43317 9.33073L11.7332 14.5974ZM22.6665 25.5641L25.5665 22.6641L24.0665 21.1641L22.5998 22.5974L20.7332 20.7307L22.1665 19.2641L20.2665 17.3974L17.3998 20.2641L22.6665 25.5641ZM9.6665 27.9974H3.99984V22.3307L9.83317 16.4974L2.6665 9.33073L9.33317 2.66406L16.5332 9.86406L21.5665 4.7974C21.8332 4.53073 22.1332 4.33073 22.4665 4.1974C22.7998 4.06406 23.1443 3.9974 23.4998 3.9974C23.8554 3.9974 24.1998 4.06406 24.5332 4.1974C24.8665 4.33073 25.1665 4.53073 25.4332 4.7974L27.1998 6.5974C27.4665 6.86406 27.6665 7.16406 27.7998 7.4974C27.9332 7.83073 27.9998 8.17517 27.9998 8.53073C27.9998 8.88628 27.9332 9.22517 27.7998 9.5474C27.6665 9.86962 27.4665 10.1641 27.1998 10.4307L22.1665 15.4974L29.3332 22.6641L22.6665 29.3307L15.4998 22.1641L9.6665 27.9974ZM6.6665 25.3307H8.53317L21.5998 12.2974L19.6998 10.3974L6.6665 23.4641V25.3307Z" fill="white"/>
</g>
</g>
</svg>
