<svg width="32" height="32" viewBox="0 0 32 32" fill="none" xmlns="http://www.w3.org/2000/svg">
<g id="adb">
<mask id="mask0_1961_346" style="mask-type:alpha" maskUnits="userSpaceOnUse" x="0" y="0" width="32" height="32">
<rect id="Bounding box" width="32" height="32" fill="#D9D9D9"/>
</mask>
<g mask="url(#mask0_1961_346)">
<path id="adb_2" d="M6.6665 14.6667V13.3333C6.6665 11.7333 7.02761 10.2722 7.74984 8.95C8.47206 7.62778 9.44428 6.54444 10.6665 5.7L8.1665 3.2L9.33317 2L12.1665 4.83333C12.7443 4.56667 13.3609 4.36111 14.0165 4.21667C14.6721 4.07222 15.3332 4 15.9998 4C16.6665 4 17.3276 4.07222 17.9832 4.21667C18.6387 4.36111 19.2554 4.56667 19.8332 4.83333L22.6665 2L23.8332 3.2L21.3332 5.7C22.5554 6.54444 23.5276 7.62778 24.2498 8.95C24.9721 10.2722 25.3332 11.7333 25.3332 13.3333V14.6667H6.6665ZM19.9998 12C20.3776 12 20.6943 11.8722 20.9498 11.6167C21.2054 11.3611 21.3332 11.0444 21.3332 10.6667C21.3332 10.2889 21.2054 9.97222 20.9498 9.71667C20.6943 9.46111 20.3776 9.33333 19.9998 9.33333C19.6221 9.33333 19.3054 9.46111 19.0498 9.71667C18.7943 9.97222 18.6665 10.2889 18.6665 10.6667C18.6665 11.0444 18.7943 11.3611 19.0498 11.6167C19.3054 11.8722 19.6221 12 19.9998 12ZM11.9998 12C12.3776 12 12.6943 11.8722 12.9498 11.6167C13.2054 11.3611 13.3332 11.0444 13.3332 10.6667C13.3332 10.2889 13.2054 9.97222 12.9498 9.71667C12.6943 9.46111 12.3776 9.33333 11.9998 9.33333C11.6221 9.33333 11.3054 9.46111 11.0498 9.71667C10.7943 9.97222 10.6665 10.2889 10.6665 10.6667C10.6665 11.0444 10.7943 11.3611 11.0498 11.6167C11.3054 11.8722 11.6221 12 11.9998 12ZM15.9998 30.6667C13.3998 30.6667 11.1943 29.7611 9.38317 27.95C7.57206 26.1389 6.6665 23.9333 6.6665 21.3333V16H25.3332V21.3333C25.3332 23.9333 24.4276 26.1389 22.6165 27.95C20.8054 29.7611 18.5998 30.6667 15.9998 30.6667Z" fill="white"/>
</g>
</g>
</svg>
