<svg width="32" height="32" viewBox="0 0 32 32" fill="none" xmlns="http://www.w3.org/2000/svg">
<g id="nutrition">
<mask id="mask0_1961_352" style="mask-type:alpha" maskUnits="userSpaceOnUse" x="0" y="0" width="32" height="32">
<rect id="Bounding box" width="32" height="32" fill="#D9D9D9"/>
</mask>
<g mask="url(#mask0_1961_352)">
<path id="nutrition_2" d="M15.9998 28.0059C13.3998 28.0059 11.1943 27.1004 9.38317 25.2892C7.57206 23.4781 6.6665 21.2726 6.6665 18.6726C6.6665 16.5837 7.28317 14.7115 8.5165 13.0559C9.74984 11.4004 11.3665 10.2837 13.3665 9.70591C12.9221 9.5948 12.4887 9.43369 12.0665 9.22258C11.6443 9.01146 11.2665 8.73924 10.9332 8.40591C10.1998 7.67257 9.72761 6.80035 9.5165 5.78924C9.30539 4.77813 9.25539 3.75035 9.3665 2.70591C10.4109 2.5948 11.4387 2.6448 12.4498 2.85591C13.4609 3.06702 14.3332 3.53924 15.0665 4.27258C15.5776 4.78369 15.9498 5.36146 16.1832 6.00591C16.4165 6.65035 16.5665 7.32813 16.6332 8.03924C16.9221 7.35035 17.2721 6.70035 17.6832 6.08924C18.0943 5.47813 18.5554 4.91702 19.0665 4.40591C19.3109 4.16146 19.6221 4.03924 19.9998 4.03924C20.3776 4.03924 20.6887 4.16146 20.9332 4.40591C21.1776 4.65035 21.2998 4.96146 21.2998 5.33924C21.2998 5.71702 21.1776 6.02813 20.9332 6.27258C20.4443 6.76146 20.0109 7.30035 19.6332 7.88924C19.2554 8.47813 18.9776 9.10591 18.7998 9.77257C20.7554 10.3948 22.3332 11.5226 23.5332 13.1559C24.7332 14.7892 25.3332 16.6281 25.3332 18.6726C25.3332 21.2726 24.4276 23.4781 22.6165 25.2892C20.8054 27.1004 18.5998 28.0059 15.9998 28.0059ZM15.9998 25.3392C17.8443 25.3392 19.4165 24.6892 20.7165 23.3892C22.0165 22.0892 22.6665 20.517 22.6665 18.6726C22.6665 16.8281 22.0165 15.2559 20.7165 13.9559C19.4165 12.6559 17.8443 12.0059 15.9998 12.0059C14.1554 12.0059 12.5832 12.6559 11.2832 13.9559C9.98317 15.2559 9.33317 16.8281 9.33317 18.6726C9.33317 20.517 9.98317 22.0892 11.2832 23.3892C12.5832 24.6892 14.1554 25.3392 15.9998 25.3392Z" fill="white"/>
</g>
</g>
</svg>
