<svg width="32" height="32" viewBox="0 0 32 32" fill="none" xmlns="http://www.w3.org/2000/svg">
<mask id="mask0_1961_349" style="mask-type:alpha" maskUnits="userSpaceOnUse" x="0" y="0" width="32" height="32">
<rect width="32" height="32" fill="#D9D9D9"/>
</mask>
<g mask="url(#mask0_1961_349)">
<path d="M11.7334 14.5974L14.6001 11.6974L12.7334 9.7974L11.2667 11.2641L9.40008 9.3974L10.8334 7.93073L9.33341 6.43073L6.43341 9.33073L11.7334 14.5974ZM22.6667 25.5641L25.5667 22.6641L24.0667 21.1641L22.6001 22.5974L20.7334 20.7307L22.1667 19.2641L20.2667 17.3974L17.4001 20.2641L22.6667 25.5641ZM9.66675 27.9974H4.00008V22.3307L9.83341 16.4974L2.66675 9.33073L9.33341 2.66406L16.5334 9.86406L21.5667 4.7974C21.8334 4.53073 22.1334 4.33073 22.4667 4.1974C22.8001 4.06406 23.1445 3.9974 23.5001 3.9974C23.8556 3.9974 24.2001 4.06406 24.5334 4.1974C24.8667 4.33073 25.1667 4.53073 25.4334 4.7974L27.2001 6.5974C27.4667 6.86406 27.6667 7.16406 27.8001 7.4974C27.9334 7.83073 28.0001 8.17517 28.0001 8.53073C28.0001 8.88628 27.9334 9.22517 27.8001 9.5474C27.6667 9.86962 27.4667 10.1641 27.2001 10.4307L22.1667 15.4974L29.3334 22.6641L22.6667 29.3307L15.5001 22.1641L9.66675 27.9974ZM6.66675 25.3307H8.53341L21.6001 12.2974L19.7001 10.3974L6.66675 23.4641V25.3307Z" fill="black"/>
</g>
</svg>
